{
	"asset":{
		"extensions":{
			"ASOBO_normal_map_convention":{
				"tangent_space_convention":"DirectX"
			}
		},
		"generator":"Khronos glTF Blender I/O v3.6.28 and Asobo Studio MSFS Blender I/O v1.3.3",
		"version":"2.0"
	},
	"extensionsUsed":[
		"ASOBO_normal_map_convention",
		"ASOBO_unique_id",
		"ASOBO_macro_light"
	],
	"scene":0,
	"scenes":[
		{
			"name":"Scene",
			"nodes":[
				0,
				1,
				2,
				3,
				4,
				5,
				6,
				8
			]
		}
	],
	"nodes":[
		{
			"extensions":{
				"ASOBO_unique_id":{
					"id":"Cylinder"
				}
			},
			"mesh":0,
			"name":"Cylinder",
			"scale":[
				0.30000001192092896,
				18,
				0.30000001192092896
			],
			"translation":[
				0,
				18.004295349121094,
				0
			]
		},
		{
			"extensions":{
				"ASOBO_unique_id":{
					"id":"Cube"
				}
			},
			"mesh":1,
			"name":"Cube",
			"scale":[
				0.3499999940395355,
				0.3499999940395355,
				3.5
			],
			"translation":[
				-0.000943746417760849,
				36.23865509033203,
				-0.022332504391670227
			]
		},
		{
			"extensions":{
				"ASOBO_unique_id":{
					"id":"Cube.005"
				}
			},
			"mesh":2,
			"name":"Cube.005",
			"rotation":[
				0,
				0,
				-0.11522945016622543,
				0.993338942527771
			],
			"scale":[
				1,
				0.15000003576278687,
				1
			],
			"translation":[
				-1.7988022565841675,
				36.583763122558594,
				0
			]
		},
		{
			"extensions":{
				"ASOBO_unique_id":{
					"id":"Spot"
				},
				"ASOBO_macro_light":{
					"color":[
						1,
						1,
						1
					],
					"intensity":400,
					"cone_angle":149.99999734394112,
					"has_symmetry":false,
					"flash_frequency":0,
					"flash_duration":0,
					"flash_phase":0,
					"rotation_speed":0,
					"day_night_cycle":true
				}
			},
			"name":"Spot",
			"rotation":[
				-0.6913534998893738,
				0.14842616021633148,
				0.1484261453151703,
				-0.6913535594940186
			],
			"translation":[
				-1.7725380659103394,
				36.40816879272461,
				0
			]
		},
		{
			"extensions":{
				"ASOBO_unique_id":{
					"id":"Cube.006"
				}
			},
			"mesh":3,
			"name":"Cube.006",
			"rotation":[
				0.025301869958639145,
				0.19837746024131775,
				-0.12396340817213058,
				0.9719255566596985
			],
			"scale":[
				1,
				0.15000003576278687,
				1
			],
			"translation":[
				-1.6863505840301514,
				36.51398849487305,
				3.212925910949707
			]
		},
		{
			"extensions":{
				"ASOBO_unique_id":{
					"id":"Spot.002"
				},
				"ASOBO_macro_light":{
					"color":[
						1,
						1,
						1
					],
					"intensity":400,
					"cone_angle":149.99999734394112,
					"has_symmetry":false,
					"flash_frequency":0,
					"flash_duration":0,
					"flash_phase":0,
					"rotation_speed":0,
					"day_night_cycle":true
				}
			},
			"name":"Spot.002",
			"rotation":[
				-0.7088164687156677,
				-0.03474529832601547,
				0.2163759469985962,
				-0.6704875826835632
			],
			"translation":[
				-1.6237890720367432,
				36.44752502441406,
				3.1518051624298096
			]
		},
		{
			"extensions":{
				"ASOBO_unique_id":{
					"id":"Spot.003"
				},
				"ASOBO_macro_light":{
					"color":[
						1,
						1,
						1
					],
					"intensity":400,
					"cone_angle":149.7000017752158,
					"has_symmetry":false,
					"flash_frequency":0,
					"flash_duration":0,
					"flash_phase":0,
					"rotation_speed":0,
					"day_night_cycle":true
				}
			},
			"name":"Spot.003",
			"rotation":[
				-0.7146448493003845,
				0.2832852303981781,
				-0.060913681983947754,
				-0.6366490125656128
			],
			"scale":[
				1.3214339017868042,
				1.3214339017868042,
				1.3214337825775146
			],
			"translation":[
				-1.7897282838821411,
				36.37462615966797,
				-3.102383613586426
			]
		},
		{
			"extensions":{
				"ASOBO_unique_id":{
					"id":"Point"
				},
				"ASOBO_macro_light":{
					"color":[
						1,
						0.005952236242592335,
						0
					],
					"intensity":100,
					"cone_angle":360,
					"has_symmetry":true,
					"flash_frequency":0,
					"flash_duration":0,
					"flash_phase":0,
					"rotation_speed":0,
					"day_night_cycle":true
				}
			},
			"name":"Point",
			"rotation":[
				-0.7071067690849304,
				0,
				0,
				-0.70710688829422
			]
		},
		{
			"children":[
				7
			],
			"extensions":{
				"ASOBO_unique_id":{
					"id":"Sphere"
				}
			},
			"mesh":4,
			"name":"Sphere",
			"scale":[
				0.20000000298023224,
				0.20000000298023224,
				0.20000000298023224
			],
			"translation":[
				0,
				36.76393508911133,
				0
			]
		}
	],
	"materials":[
		{
			"doubleSided":true,
			"emissiveFactor":[
				0,
				0,
				0
			],
			"extras":{},
			"name":"Material",
			"pbrMetallicRoughness":{
				"baseColorFactor":[
					0,
					0,
					0,
					1
				]
			}
		},
		{
			"doubleSided":true,
			"emissiveFactor":[
				0,
				0,
				0
			],
			"extras":{},
			"name":"Material.004",
			"pbrMetallicRoughness":{
				"baseColorFactor":[
					0,
					0,
					0,
					1
				]
			}
		},
		{
			"doubleSided":true,
			"emissiveFactor":[
				0,
				0,
				0
			],
			"extras":{},
			"name":"Material.007",
			"pbrMetallicRoughness":{
				"baseColorFactor":[
					0,
					0,
					0,
					1
				]
			}
		},
		{
			"doubleSided":true,
			"emissiveFactor":[
				0,
				0,
				0
			],
			"extras":{},
			"name":"Material.006",
			"pbrMetallicRoughness":{
				"baseColorFactor":[
					0,
					0,
					0,
					1
				]
			}
		},
		{
			"doubleSided":true,
			"emissiveFactor":[
				0,
				0,
				0
			],
			"extras":{},
			"name":"Material.001",
			"pbrMetallicRoughness":{
				"baseColorFactor":[
					0,
					0,
					0,
					1
				]
			}
		}
	],
	"meshes":[
		{
			"name":"Cylinder.001",
			"primitives":[
				{
					"attributes":{
						"POSITION":0,
						"NORMAL":1,
						"TEXCOORD_0":2
					},
					"indices":3,
					"material":0
				}
			]
		},
		{
			"name":"Cube.001",
			"primitives":[
				{
					"attributes":{
						"POSITION":4,
						"NORMAL":5,
						"TEXCOORD_0":6,
						"TANGENT":7
					},
					"indices":8,
					"material":1
				}
			]
		},
		{
			"name":"Cube",
			"primitives":[
				{
					"attributes":{
						"POSITION":9,
						"NORMAL":10,
						"TEXCOORD_0":11,
						"TANGENT":12
					},
					"indices":13,
					"material":2
				}
			]
		},
		{
			"name":"Cube.006",
			"primitives":[
				{
					"attributes":{
						"POSITION":14,
						"NORMAL":15,
						"TEXCOORD_0":16,
						"TANGENT":17
					},
					"indices":18,
					"material":3
				}
			]
		},
		{
			"name":"Sphere",
			"primitives":[
				{
					"attributes":{
						"POSITION":19,
						"NORMAL":20,
						"TEXCOORD_0":21,
						"TANGENT":22
					},
					"indices":23,
					"material":4
				}
			]
		}
	],
	"accessors":[
		{
			"bufferView":0,
			"componentType":5126,
			"count":130,
			"max":[
				1,
				1,
				1
			],
			"min":[
				-1,
				-1,
				-1
			],
			"type":"VEC3"
		},
		{
			"bufferView":1,
			"componentType":5126,
			"count":130,
			"type":"VEC3"
		},
		{
			"bufferView":2,
			"componentType":5126,
			"count":130,
			"type":"VEC2"
		},
		{
			"bufferView":3,
			"componentType":5123,
			"count":372,
			"type":"SCALAR"
		},
		{
			"bufferView":4,
			"componentType":5126,
			"count":24,
			"max":[
				1,
				1,
				1
			],
			"min":[
				-1,
				-1,
				-1
			],
			"type":"VEC3"
		},
		{
			"bufferView":5,
			"componentType":5126,
			"count":24,
			"type":"VEC3"
		},
		{
			"bufferView":6,
			"componentType":5126,
			"count":24,
			"type":"VEC2"
		},
		{
			"bufferView":7,
			"componentType":5126,
			"count":24,
			"type":"VEC4"
		},
		{
			"bufferView":8,
			"componentType":5123,
			"count":36,
			"type":"SCALAR"
		},
		{
			"bufferView":9,
			"componentType":5126,
			"count":48,
			"max":[
				1,
				1,
				1
			],
			"min":[
				-1,
				-1,
				-1
			],
			"type":"VEC3"
		},
		{
			"bufferView":10,
			"componentType":5126,
			"count":48,
			"type":"VEC3"
		},
		{
			"bufferView":11,
			"componentType":5126,
			"count":48,
			"type":"VEC2"
		},
		{
			"bufferView":12,
			"componentType":5126,
			"count":48,
			"type":"VEC4"
		},
		{
			"bufferView":13,
			"componentType":5123,
			"count":84,
			"type":"SCALAR"
		},
		{
			"bufferView":14,
			"componentType":5126,
			"count":104,
			"max":[
				3.9321541786193848,
				1.000002145767212,
				1
			],
			"min":[
				-1,
				-1,
				-7.325793743133545
			],
			"type":"VEC3"
		},
		{
			"bufferView":15,
			"componentType":5126,
			"count":104,
			"type":"VEC3"
		},
		{
			"bufferView":16,
			"componentType":5126,
			"count":104,
			"type":"VEC2"
		},
		{
			"bufferView":17,
			"componentType":5126,
			"count":104,
			"type":"VEC4"
		},
		{
			"bufferView":18,
			"componentType":5123,
			"count":168,
			"type":"SCALAR"
		},
		{
			"bufferView":19,
			"componentType":5126,
			"count":1984,
			"max":[
				0.9999997019767761,
				1,
				0.9999993443489075
			],
			"min":[
				-0.9999990463256836,
				-1,
				-1
			],
			"type":"VEC3"
		},
		{
			"bufferView":20,
			"componentType":5126,
			"count":1984,
			"type":"VEC3"
		},
		{
			"bufferView":21,
			"componentType":5126,
			"count":1984,
			"type":"VEC2"
		},
		{
			"bufferView":22,
			"componentType":5126,
			"count":1984,
			"type":"VEC4"
		},
		{
			"bufferView":23,
			"componentType":5123,
			"count":2880,
			"type":"SCALAR"
		}
	],
	"bufferViews":[
		{
			"buffer":0,
			"byteLength":1560,
			"byteOffset":0,
			"target":34962
		},
		{
			"buffer":0,
			"byteLength":1560,
			"byteOffset":1560,
			"target":34962
		},
		{
			"buffer":0,
			"byteLength":1040,
			"byteOffset":3120,
			"target":34962
		},
		{
			"buffer":0,
			"byteLength":744,
			"byteOffset":4160,
			"target":34963
		},
		{
			"buffer":0,
			"byteLength":288,
			"byteOffset":4904,
			"target":34962
		},
		{
			"buffer":0,
			"byteLength":288,
			"byteOffset":5192,
			"target":34962
		},
		{
			"buffer":0,
			"byteLength":192,
			"byteOffset":5480,
			"target":34962
		},
		{
			"buffer":0,
			"byteLength":384,
			"byteOffset":5672,
			"target":34962
		},
		{
			"buffer":0,
			"byteLength":72,
			"byteOffset":6056,
			"target":34963
		},
		{
			"buffer":0,
			"byteLength":576,
			"byteOffset":6128,
			"target":34962
		},
		{
			"buffer":0,
			"byteLength":576,
			"byteOffset":6704,
			"target":34962
		},
		{
			"buffer":0,
			"byteLength":384,
			"byteOffset":7280,
			"target":34962
		},
		{
			"buffer":0,
			"byteLength":768,
			"byteOffset":7664,
			"target":34962
		},
		{
			"buffer":0,
			"byteLength":168,
			"byteOffset":8432,
			"target":34963
		},
		{
			"buffer":0,
			"byteLength":1248,
			"byteOffset":8600,
			"target":34962
		},
		{
			"buffer":0,
			"byteLength":1248,
			"byteOffset":9848,
			"target":34962
		},
		{
			"buffer":0,
			"byteLength":832,
			"byteOffset":11096,
			"target":34962
		},
		{
			"buffer":0,
			"byteLength":1664,
			"byteOffset":11928,
			"target":34962
		},
		{
			"buffer":0,
			"byteLength":336,
			"byteOffset":13592,
			"target":34963
		},
		{
			"buffer":0,
			"byteLength":23808,
			"byteOffset":13928,
			"target":34962
		},
		{
			"buffer":0,
			"byteLength":23808,
			"byteOffset":37736,
			"target":34962
		},
		{
			"buffer":0,
			"byteLength":15872,
			"byteOffset":61544,
			"target":34962
		},
		{
			"buffer":0,
			"byteLength":31744,
			"byteOffset":77416,
			"target":34962
		},
		{
			"buffer":0,
			"byteLength":5760,
			"byteOffset":109160,
			"target":34963
		}
	],
	"buffers":[
		{
			"byteLength":114920,
			"uri":"Apron9Tall.bin"
		}
	]
}
