{
	"asset":{
		"extensions":{
			"ASOBO_normal_map_convention":{
				"tangent_space_convention":"DirectX"
			}
		},
		"generator":"Khronos glTF Blender I/O v3.6.28 and Asobo Studio MSFS Blender I/O v1.3.3",
		"version":"2.0"
	},
	"extensionsUsed":[
		"ASOBO_normal_map_convention",
		"ASOBO_unique_id",
		"ASOBO_macro_light"
	],
	"scene":0,
	"scenes":[
		{
			"name":"Scene",
			"nodes":[
				0,
				1,
				2,
				3,
				4,
				5,
				6,
				7,
				8,
				9,
				10,
				11,
				12
			]
		}
	],
	"nodes":[
		{
			"extensions":{
				"ASOBO_unique_id":{
					"id":"Cylinder"
				}
			},
			"mesh":0,
			"name":"Cylinder",
			"scale":[
				0.5,
				8,
				0.5
			],
			"translation":[
				0,
				8.000892639160156,
				0
			]
		},
		{
			"extensions":{
				"ASOBO_unique_id":{
					"id":"Cube"
				}
			},
			"mesh":1,
			"name":"Cube",
			"scale":[
				0.25,
				0.25,
				1.4999998807907104
			],
			"translation":[
				-1.7999999523162842,
				14.199999809265137,
				0
			]
		},
		{
			"extensions":{
				"ASOBO_unique_id":{
					"id":"Cube.002"
				}
			},
			"mesh":2,
			"name":"Cube.002",
			"rotation":[
				0,
				0.7071068286895752,
				0,
				0.7071068286895752
			],
			"scale":[
				0.25,
				0.25,
				2.049999952316284
			],
			"translation":[
				-0.001640799455344677,
				14.199999809265137,
				1.75
			]
		},
		{
			"extensions":{
				"ASOBO_unique_id":{
					"id":"Cube.001"
				}
			},
			"mesh":3,
			"name":"Cube.001",
			"rotation":[
				0,
				0.7071068286895752,
				0,
				0.7071068286895752
			],
			"scale":[
				0.25,
				0.25,
				2.049999952316284
			],
			"translation":[
				-0.001640799455344677,
				16,
				1.75
			]
		},
		{
			"extensions":{
				"ASOBO_unique_id":{
					"id":"Cube.003"
				}
			},
			"mesh":4,
			"name":"Cube.003",
			"scale":[
				0.25,
				0.25,
				1.4999998807907104
			],
			"translation":[
				-1.7999999523162842,
				16,
				0
			]
		},
		{
			"extensions":{
				"ASOBO_unique_id":{
					"id":"Cube.004"
				}
			},
			"mesh":5,
			"name":"Cube.004",
			"rotation":[
				0.5056399703025818,
				0.4942956864833832,
				-0.49429571628570557,
				0.5056400299072266
			],
			"scale":[
				0.25,
				0.25,
				0.8500000238418579
			],
			"translation":[
				-1.7747002840042114,
				14.977831840515137,
				1.7360280752182007
			]
		},
		{
			"extensions":{
				"ASOBO_unique_id":{
					"id":"Cylinder.004"
				}
			},
			"mesh":6,
			"name":"Cylinder.004",
			"rotation":[
				0.1890648752450943,
				0.07161076366901398,
				0.20939290523529053,
				0.956703245639801
			],
			"scale":[
				0.20000000298023224,
				1.9999998807907104,
				0.20000000298023224
			],
			"translation":[
				-0.9852620363235474,
				12.621957778930664,
				0.9787511229515076
			]
		},
		{
			"extensions":{
				"ASOBO_unique_id":{
					"id":"Cube.005"
				}
			},
			"mesh":7,
			"name":"Cube.005",
			"scale":[
				1,
				0.15000003576278687,
				1
			],
			"translation":[
				-3.4708380699157715,
				15.998275756835938,
				0
			]
		},
		{
			"extensions":{
				"ASOBO_unique_id":{
					"id":"Spot"
				},
				"ASOBO_macro_light":{
					"color":[
						1,
						1,
						1
					],
					"intensity":100,
					"cone_angle":360,
					"has_symmetry":false,
					"flash_frequency":0,
					"flash_duration":0,
					"flash_phase":0,
					"rotation_speed":0,
					"day_night_cycle":true
				}
			},
			"name":"Spot",
			"rotation":[
				-0.7038513422012329,
				0.06777319312095642,
				0.06777318567037582,
				-0.7038514614105225
			],
			"translation":[
				-3.447338581085205,
				16.01307487487793,
				0
			]
		},
		{
			"extensions":{
				"ASOBO_unique_id":{
					"id":"Spot.001"
				},
				"ASOBO_macro_light":{
					"color":[
						1,
						1,
						1
					],
					"intensity":100,
					"cone_angle":360,
					"has_symmetry":false,
					"flash_frequency":0,
					"flash_duration":0,
					"flash_phase":0,
					"rotation_speed":0,
					"day_night_cycle":true
				}
			},
			"name":"Spot.001",
			"rotation":[
				-0.7038513422012329,
				-0.06777319312095642,
				-0.06777318567037582,
				-0.7038514614105225
			],
			"translation":[
				3.5002739429473877,
				16.01307487487793,
				0.03599612042307854
			]
		},
		{
			"extensions":{
				"ASOBO_unique_id":{
					"id":"Cube.006"
				}
			},
			"mesh":8,
			"name":"Cube.006",
			"rotation":[
				0,
				0.7071068286895752,
				0,
				0.7071068286895752
			],
			"scale":[
				1,
				0.15000003576278687,
				1
			],
			"translation":[
				0,
				15.998275756835938,
				3.476938486099243
			]
		},
		{
			"extensions":{
				"ASOBO_unique_id":{
					"id":"Spot.002"
				},
				"ASOBO_macro_light":{
					"color":[
						1,
						1,
						1
					],
					"intensity":100,
					"cone_angle":360,
					"has_symmetry":false,
					"flash_frequency":0,
					"flash_duration":0,
					"flash_phase":0,
					"rotation_speed":0,
					"day_night_cycle":true
				}
			},
			"name":"Spot.002",
			"rotation":[
				-0.6360781788825989,
				0,
				0,
				-0.7716245651245117
			],
			"translation":[
				0.06079268455505371,
				16.01307487487793,
				3.494807004928589
			]
		},
		{
			"extensions":{
				"ASOBO_unique_id":{
					"id":"Spot.003"
				},
				"ASOBO_macro_light":{
					"color":[
						1,
						1,
						1
					],
					"intensity":100,
					"cone_angle":360,
					"has_symmetry":false,
					"flash_frequency":0,
					"flash_duration":0,
					"flash_phase":0,
					"rotation_speed":0,
					"day_night_cycle":true
				}
			},
			"name":"Spot.003",
			"rotation":[
				-0.7716245651245117,
				0,
				0,
				-0.6360782980918884
			],
			"translation":[
				0.06079268455505371,
				16.01307487487793,
				-3.524824857711792
			]
		}
	],
	"materials":[
		{
			"doubleSided":true,
			"emissiveFactor":[
				0,
				0,
				0
			],
			"extras":{},
			"name":"Material",
			"pbrMetallicRoughness":{
				"baseColorFactor":[
					0,
					0,
					0,
					1
				]
			}
		},
		{
			"doubleSided":true,
			"emissiveFactor":[
				0,
				0,
				0
			],
			"extras":{},
			"name":"Material.004",
			"pbrMetallicRoughness":{
				"baseColorFactor":[
					0,
					0,
					0,
					1
				]
			}
		},
		{
			"doubleSided":true,
			"emissiveFactor":[
				0,
				0,
				0
			],
			"extras":{},
			"name":"Material.005",
			"pbrMetallicRoughness":{
				"baseColorFactor":[
					0,
					0,
					0,
					1
				]
			}
		},
		{
			"doubleSided":true,
			"emissiveFactor":[
				0,
				0,
				0
			],
			"extras":{},
			"name":"Material.001",
			"pbrMetallicRoughness":{
				"baseColorFactor":[
					0,
					0,
					0,
					1
				]
			}
		},
		{
			"doubleSided":true,
			"emissiveFactor":[
				0,
				0,
				0
			],
			"extras":{},
			"name":"Material.002",
			"pbrMetallicRoughness":{
				"baseColorFactor":[
					0,
					0,
					0,
					1
				]
			}
		},
		{
			"doubleSided":true,
			"emissiveFactor":[
				0,
				0,
				0
			],
			"extras":{},
			"name":"Material.003",
			"pbrMetallicRoughness":{
				"baseColorFactor":[
					0,
					0,
					0,
					1
				]
			}
		},
		{
			"doubleSided":true,
			"emissiveFactor":[
				0,
				0,
				0
			],
			"extras":{},
			"name":"Material.007",
			"pbrMetallicRoughness":{
				"baseColorFactor":[
					0,
					0,
					0,
					1
				]
			}
		},
		{
			"doubleSided":true,
			"emissiveFactor":[
				0,
				0,
				0
			],
			"extras":{},
			"name":"Material.006",
			"pbrMetallicRoughness":{
				"baseColorFactor":[
					0,
					0,
					0,
					1
				]
			}
		}
	],
	"meshes":[
		{
			"name":"Cylinder.001",
			"primitives":[
				{
					"attributes":{
						"POSITION":0,
						"NORMAL":1,
						"TEXCOORD_0":2
					},
					"indices":3,
					"material":0
				}
			]
		},
		{
			"name":"Cube.001",
			"primitives":[
				{
					"attributes":{
						"POSITION":4,
						"NORMAL":5,
						"TEXCOORD_0":6,
						"TANGENT":7
					},
					"indices":8,
					"material":1
				}
			]
		},
		{
			"name":"Cube.003",
			"primitives":[
				{
					"attributes":{
						"POSITION":9,
						"NORMAL":10,
						"TEXCOORD_0":11,
						"TANGENT":12
					},
					"indices":8,
					"material":2
				}
			]
		},
		{
			"name":"Cube.004",
			"primitives":[
				{
					"attributes":{
						"POSITION":13,
						"NORMAL":14,
						"TEXCOORD_0":15,
						"TANGENT":16
					},
					"indices":8,
					"material":3
				}
			]
		},
		{
			"name":"Cube.005",
			"primitives":[
				{
					"attributes":{
						"POSITION":17,
						"NORMAL":18,
						"TEXCOORD_0":19,
						"TANGENT":20
					},
					"indices":8,
					"material":4
				}
			]
		},
		{
			"name":"Cube.002",
			"primitives":[
				{
					"attributes":{
						"POSITION":21,
						"NORMAL":22,
						"TEXCOORD_0":23,
						"TANGENT":24
					},
					"indices":25,
					"material":5
				}
			]
		},
		{
			"name":"Cylinder",
			"primitives":[
				{
					"attributes":{
						"POSITION":26,
						"NORMAL":27,
						"TEXCOORD_0":28
					},
					"indices":29
				}
			]
		},
		{
			"name":"Cube",
			"primitives":[
				{
					"attributes":{
						"POSITION":30,
						"NORMAL":31,
						"TEXCOORD_0":32,
						"TANGENT":33
					},
					"indices":34,
					"material":6
				}
			]
		},
		{
			"name":"Cube.006",
			"primitives":[
				{
					"attributes":{
						"POSITION":35,
						"NORMAL":36,
						"TEXCOORD_0":37,
						"TANGENT":38
					},
					"indices":39,
					"material":7
				}
			]
		}
	],
	"accessors":[
		{
			"bufferView":0,
			"componentType":5126,
			"count":130,
			"max":[
				1,
				1,
				1
			],
			"min":[
				-1,
				-1,
				-1
			],
			"type":"VEC3"
		},
		{
			"bufferView":1,
			"componentType":5126,
			"count":130,
			"type":"VEC3"
		},
		{
			"bufferView":2,
			"componentType":5126,
			"count":130,
			"type":"VEC2"
		},
		{
			"bufferView":3,
			"componentType":5123,
			"count":372,
			"type":"SCALAR"
		},
		{
			"bufferView":4,
			"componentType":5126,
			"count":48,
			"max":[
				15.399999618530273,
				1,
				1
			],
			"min":[
				-1,
				-1.0000019073486328,
				-1
			],
			"type":"VEC3"
		},
		{
			"bufferView":5,
			"componentType":5126,
			"count":48,
			"type":"VEC3"
		},
		{
			"bufferView":6,
			"componentType":5126,
			"count":48,
			"type":"VEC2"
		},
		{
			"bufferView":7,
			"componentType":5126,
			"count":48,
			"type":"VEC4"
		},
		{
			"bufferView":8,
			"componentType":5123,
			"count":72,
			"type":"SCALAR"
		},
		{
			"bufferView":9,
			"componentType":5126,
			"count":48,
			"max":[
				15.000000953674316,
				1,
				1.0000001192092896
			],
			"min":[
				-1,
				-1,
				-1
			],
			"type":"VEC3"
		},
		{
			"bufferView":10,
			"componentType":5126,
			"count":48,
			"type":"VEC3"
		},
		{
			"bufferView":11,
			"componentType":5126,
			"count":48,
			"type":"VEC2"
		},
		{
			"bufferView":12,
			"componentType":5126,
			"count":48,
			"type":"VEC4"
		},
		{
			"bufferView":13,
			"componentType":5126,
			"count":48,
			"max":[
				15.000000953674316,
				1,
				1.0000001192092896
			],
			"min":[
				-1,
				-1.0000019073486328,
				-1
			],
			"type":"VEC3"
		},
		{
			"bufferView":14,
			"componentType":5126,
			"count":48,
			"type":"VEC3"
		},
		{
			"bufferView":15,
			"componentType":5126,
			"count":48,
			"type":"VEC2"
		},
		{
			"bufferView":16,
			"componentType":5126,
			"count":48,
			"type":"VEC4"
		},
		{
			"bufferView":17,
			"componentType":5126,
			"count":48,
			"max":[
				15.399999618530273,
				1,
				1
			],
			"min":[
				-1,
				-1.0000019073486328,
				-1
			],
			"type":"VEC3"
		},
		{
			"bufferView":18,
			"componentType":5126,
			"count":48,
			"type":"VEC3"
		},
		{
			"bufferView":19,
			"componentType":5126,
			"count":48,
			"type":"VEC2"
		},
		{
			"bufferView":20,
			"componentType":5126,
			"count":48,
			"type":"VEC4"
		},
		{
			"bufferView":21,
			"componentType":5126,
			"count":96,
			"max":[
				15.206753730773926,
				15.23828125,
				1
			],
			"min":[
				-1,
				-1.3594188690185547,
				-1
			],
			"type":"VEC3"
		},
		{
			"bufferView":22,
			"componentType":5126,
			"count":96,
			"type":"VEC3"
		},
		{
			"bufferView":23,
			"componentType":5126,
			"count":96,
			"type":"VEC2"
		},
		{
			"bufferView":24,
			"componentType":5126,
			"count":96,
			"type":"VEC4"
		},
		{
			"bufferView":25,
			"componentType":5123,
			"count":144,
			"type":"SCALAR"
		},
		{
			"bufferView":26,
			"componentType":5126,
			"count":544,
			"max":[
				17.341054916381836,
				1,
				4.7322211265563965
			],
			"min":[
				-1,
				-1.2562463283538818,
				-16.87578582763672
			],
			"type":"VEC3"
		},
		{
			"bufferView":27,
			"componentType":5126,
			"count":544,
			"type":"VEC3"
		},
		{
			"bufferView":28,
			"componentType":5126,
			"count":544,
			"type":"VEC2"
		},
		{
			"bufferView":29,
			"componentType":5123,
			"count":1488,
			"type":"SCALAR"
		},
		{
			"bufferView":30,
			"componentType":5126,
			"count":104,
			"max":[
				7.941676139831543,
				1,
				1
			],
			"min":[
				-1,
				-1,
				-1
			],
			"type":"VEC3"
		},
		{
			"bufferView":31,
			"componentType":5126,
			"count":104,
			"type":"VEC3"
		},
		{
			"bufferView":32,
			"componentType":5126,
			"count":104,
			"type":"VEC2"
		},
		{
			"bufferView":33,
			"componentType":5126,
			"count":104,
			"type":"VEC4"
		},
		{
			"bufferView":34,
			"componentType":5123,
			"count":168,
			"type":"SCALAR"
		},
		{
			"bufferView":35,
			"componentType":5126,
			"count":100,
			"max":[
				7.953876972198486,
				1,
				1.0000004768371582
			],
			"min":[
				-1,
				-1,
				-1
			],
			"type":"VEC3"
		},
		{
			"bufferView":36,
			"componentType":5126,
			"count":100,
			"type":"VEC3"
		},
		{
			"bufferView":37,
			"componentType":5126,
			"count":100,
			"type":"VEC2"
		},
		{
			"bufferView":38,
			"componentType":5126,
			"count":100,
			"type":"VEC4"
		},
		{
			"bufferView":39,
			"componentType":5123,
			"count":168,
			"type":"SCALAR"
		}
	],
	"bufferViews":[
		{
			"buffer":0,
			"byteLength":1560,
			"byteOffset":0,
			"target":34962
		},
		{
			"buffer":0,
			"byteLength":1560,
			"byteOffset":1560,
			"target":34962
		},
		{
			"buffer":0,
			"byteLength":1040,
			"byteOffset":3120,
			"target":34962
		},
		{
			"buffer":0,
			"byteLength":744,
			"byteOffset":4160,
			"target":34963
		},
		{
			"buffer":0,
			"byteLength":576,
			"byteOffset":4904,
			"target":34962
		},
		{
			"buffer":0,
			"byteLength":576,
			"byteOffset":5480,
			"target":34962
		},
		{
			"buffer":0,
			"byteLength":384,
			"byteOffset":6056,
			"target":34962
		},
		{
			"buffer":0,
			"byteLength":768,
			"byteOffset":6440,
			"target":34962
		},
		{
			"buffer":0,
			"byteLength":144,
			"byteOffset":7208,
			"target":34963
		},
		{
			"buffer":0,
			"byteLength":576,
			"byteOffset":7352,
			"target":34962
		},
		{
			"buffer":0,
			"byteLength":576,
			"byteOffset":7928,
			"target":34962
		},
		{
			"buffer":0,
			"byteLength":384,
			"byteOffset":8504,
			"target":34962
		},
		{
			"buffer":0,
			"byteLength":768,
			"byteOffset":8888,
			"target":34962
		},
		{
			"buffer":0,
			"byteLength":576,
			"byteOffset":9656,
			"target":34962
		},
		{
			"buffer":0,
			"byteLength":576,
			"byteOffset":10232,
			"target":34962
		},
		{
			"buffer":0,
			"byteLength":384,
			"byteOffset":10808,
			"target":34962
		},
		{
			"buffer":0,
			"byteLength":768,
			"byteOffset":11192,
			"target":34962
		},
		{
			"buffer":0,
			"byteLength":576,
			"byteOffset":11960,
			"target":34962
		},
		{
			"buffer":0,
			"byteLength":576,
			"byteOffset":12536,
			"target":34962
		},
		{
			"buffer":0,
			"byteLength":384,
			"byteOffset":13112,
			"target":34962
		},
		{
			"buffer":0,
			"byteLength":768,
			"byteOffset":13496,
			"target":34962
		},
		{
			"buffer":0,
			"byteLength":1152,
			"byteOffset":14264,
			"target":34962
		},
		{
			"buffer":0,
			"byteLength":1152,
			"byteOffset":15416,
			"target":34962
		},
		{
			"buffer":0,
			"byteLength":768,
			"byteOffset":16568,
			"target":34962
		},
		{
			"buffer":0,
			"byteLength":1536,
			"byteOffset":17336,
			"target":34962
		},
		{
			"buffer":0,
			"byteLength":288,
			"byteOffset":18872,
			"target":34963
		},
		{
			"buffer":0,
			"byteLength":6528,
			"byteOffset":19160,
			"target":34962
		},
		{
			"buffer":0,
			"byteLength":6528,
			"byteOffset":25688,
			"target":34962
		},
		{
			"buffer":0,
			"byteLength":4352,
			"byteOffset":32216,
			"target":34962
		},
		{
			"buffer":0,
			"byteLength":2976,
			"byteOffset":36568,
			"target":34963
		},
		{
			"buffer":0,
			"byteLength":1248,
			"byteOffset":39544,
			"target":34962
		},
		{
			"buffer":0,
			"byteLength":1248,
			"byteOffset":40792,
			"target":34962
		},
		{
			"buffer":0,
			"byteLength":832,
			"byteOffset":42040,
			"target":34962
		},
		{
			"buffer":0,
			"byteLength":1664,
			"byteOffset":42872,
			"target":34962
		},
		{
			"buffer":0,
			"byteLength":336,
			"byteOffset":44536,
			"target":34963
		},
		{
			"buffer":0,
			"byteLength":1200,
			"byteOffset":44872,
			"target":34962
		},
		{
			"buffer":0,
			"byteLength":1200,
			"byteOffset":46072,
			"target":34962
		},
		{
			"buffer":0,
			"byteLength":800,
			"byteOffset":47272,
			"target":34962
		},
		{
			"buffer":0,
			"byteLength":1600,
			"byteOffset":48072,
			"target":34962
		},
		{
			"buffer":0,
			"byteLength":336,
			"byteOffset":49672,
			"target":34963
		}
	],
	"buffers":[
		{
			"byteLength":50008,
			"uri":"Apron9SmallLightPole.bin"
		}
	]
}
