{
	"asset":{
		"extensions":{
			"ASOBO_normal_map_convention":{
				"tangent_space_convention":"DirectX"
			}
		},
		"generator":"Khronos glTF Blender I/O v3.6.28 and Asobo Studio MSFS Blender I/O v1.3.3",
		"version":"2.0"
	},
	"extensionsUsed":[
		"ASOBO_normal_map_convention",
		"ASOBO_unique_id",
		"ASOBO_macro_light"
	],
	"scene":0,
	"scenes":[
		{
			"name":"Scene",
			"nodes":[
				0,
				1,
				2,
				3,
				4,
				5,
				6
			]
		}
	],
	"nodes":[
		{
			"extensions":{
				"ASOBO_unique_id":{
					"id":"Main Pole"
				}
			},
			"mesh":0,
			"name":"Main Pole",
			"translation":[
				0,
				7.536526203155518,
				0
			]
		},
		{
			"extensions":{
				"ASOBO_unique_id":{
					"id":"Floor Grating"
				}
			},
			"mesh":1,
			"name":"Floor Grating",
			"translation":[
				0.0005922527052462101,
				15.054777145385742,
				0.0007627382292412221
			]
		},
		{
			"extensions":{
				"ASOBO_unique_id":{
					"id":"Floor Holder"
				}
			},
			"mesh":2,
			"name":"Floor Holder",
			"rotation":[
				0.09319103509187698,
				-0.21865925192832947,
				-0.3808336853981018,
				0.893571138381958
			],
			"translation":[
				1.1083904504776,
				14.537090301513672,
				0.6780198216438293
			]
		},
		{
			"extensions":{
				"ASOBO_unique_id":{
					"id":"Long Banister"
				}
			},
			"mesh":3,
			"name":"Long Banister",
			"rotation":[
				-0.5,
				0.5,
				-0.4999999701976776,
				0.5
			],
			"scale":[
				1,
				1.6751168966293335,
				0.9857141375541687
			],
			"translation":[
				-0.0035572275519371033,
				15.800000190734863,
				-1.006367564201355
			]
		},
		{
			"extensions":{
				"ASOBO_unique_id":{
					"id":"Short banister"
				}
			},
			"mesh":4,
			"name":"Short banister",
			"rotation":[
				0,
				0,
				-0.7071068286895752,
				0.7071068286895752
			],
			"scale":[
				1,
				0.9998673796653748,
				1.0142855644226074
			],
			"translation":[
				1.7193790674209595,
				15.800000190734863,
				0.0004483237862586975
			]
		},
		{
			"extensions":{
				"ASOBO_unique_id":{
					"id":"Light fixture"
				}
			},
			"mesh":5,
			"name":"Light fixture",
			"rotation":[
				0.061231955885887146,
				0,
				0,
				0.9981236457824707
			],
			"translation":[
				0.4055241346359253,
				17.11143684387207,
				-2.158332347869873
			]
		},
		{
			"extensions":{
				"ASOBO_unique_id":{
					"id":"Spot"
				},
				"ASOBO_macro_light":{
					"color":[
						1,
						1,
						1
					],
					"intensity":800,
					"cone_angle":360,
					"has_symmetry":false,
					"flash_frequency":0,
					"flash_duration":0,
					"flash_phase":0,
					"rotation_speed":0,
					"day_night_cycle":true
				}
			},
			"name":"Spot",
			"rotation":[
				-0.8494885563850403,
				0.2805519998073578,
				-0.1322961300611496,
				-0.4267992079257965
			],
			"translation":[
				1.1942260265350342,
				16.214263916015625,
				-2.1046996116638184
			]
		}
	],
	"materials":[
		{
			"doubleSided":true,
			"emissiveFactor":[
				0,
				0,
				0
			],
			"extras":{},
			"name":"Material.012",
			"normalTexture":{
				"index":0,
				"scale":1
			},
			"pbrMetallicRoughness":{
				"baseColorFactor":[
					1,
					1,
					1,
					1
				],
				"baseColorTexture":{
					"index":1
				},
				"metallicFactor":1,
				"metallicRoughnessTexture":{
					"index":2
				},
				"roughnessFactor":1
			}
		},
		{
			"doubleSided":true,
			"emissiveFactor":[
				0,
				0,
				0
			],
			"extras":{},
			"name":"Material.013",
			"pbrMetallicRoughness":{
				"baseColorFactor":[
					1,
					1,
					1,
					1
				],
				"metallicFactor":1,
				"roughnessFactor":1
			}
		},
		{
			"doubleSided":true,
			"emissiveFactor":[
				0,
				0,
				0
			],
			"extras":{},
			"name":"Material.014",
			"pbrMetallicRoughness":{
				"baseColorFactor":[
					1,
					1,
					1,
					1
				],
				"metallicFactor":1,
				"roughnessFactor":1
			}
		},
		{
			"doubleSided":true,
			"emissiveFactor":[
				0,
				0,
				0
			],
			"extras":{},
			"name":"Material.002",
			"normalTexture":{
				"index":3,
				"scale":1
			},
			"pbrMetallicRoughness":{
				"baseColorFactor":[
					1,
					1,
					1,
					1
				],
				"baseColorTexture":{
					"index":4
				},
				"metallicFactor":1,
				"metallicRoughnessTexture":{
					"index":5
				},
				"roughnessFactor":1
			}
		},
		{
			"doubleSided":true,
			"emissiveFactor":[
				0,
				0,
				0
			],
			"extras":{},
			"name":"Material.001",
			"pbrMetallicRoughness":{
				"baseColorFactor":[
					1,
					1,
					1,
					1
				],
				"metallicFactor":1,
				"roughnessFactor":1
			}
		},
		{
			"doubleSided":true,
			"emissiveFactor":[
				0,
				0,
				0
			],
			"extras":{},
			"name":"Material.004",
			"pbrMetallicRoughness":{
				"baseColorFactor":[
					1,
					1,
					1,
					1
				],
				"metallicFactor":1,
				"roughnessFactor":1
			}
		}
	],
	"meshes":[
		{
			"name":"Cylinder.001",
			"primitives":[
				{
					"attributes":{
						"POSITION":0,
						"NORMAL":1,
						"TEXCOORD_0":2
					},
					"indices":3,
					"material":0
				},
				{
					"attributes":{
						"POSITION":4,
						"NORMAL":5,
						"TEXCOORD_0":6
					},
					"indices":7,
					"material":1
				},
				{
					"attributes":{
						"POSITION":8,
						"NORMAL":9,
						"TEXCOORD_0":10
					},
					"indices":11,
					"material":2
				}
			]
		},
		{
			"name":"Plane.001",
			"primitives":[
				{
					"attributes":{
						"POSITION":12,
						"NORMAL":13,
						"TEXCOORD_0":14
					},
					"indices":15,
					"material":0
				}
			]
		},
		{
			"name":"Cylinder.002",
			"primitives":[
				{
					"attributes":{
						"POSITION":16,
						"NORMAL":17,
						"TEXCOORD_0":18
					},
					"indices":19,
					"material":3
				}
			]
		},
		{
			"name":"Plane.005",
			"primitives":[
				{
					"attributes":{
						"POSITION":20,
						"NORMAL":21,
						"TEXCOORD_0":22
					},
					"indices":23,
					"material":3
				}
			]
		},
		{
			"name":"Plane.003",
			"primitives":[
				{
					"attributes":{
						"POSITION":24,
						"NORMAL":25,
						"TEXCOORD_0":26
					},
					"indices":27,
					"material":3
				}
			]
		},
		{
			"name":"Cube",
			"primitives":[
				{
					"attributes":{
						"POSITION":28,
						"NORMAL":29,
						"TEXCOORD_0":30
					},
					"indices":31,
					"material":4
				},
				{
					"attributes":{
						"POSITION":32,
						"NORMAL":33,
						"TEXCOORD_0":34
					},
					"indices":35,
					"material":5
				}
			]
		}
	],
	"textures":[
		{
			"sampler":0,
			"source":0
		},
		{
			"sampler":0,
			"source":1
		},
		{
			"sampler":0,
			"source":2
		},
		{
			"sampler":0,
			"source":0
		},
		{
			"sampler":0,
			"source":1
		},
		{
			"sampler":0,
			"source":2
		}
	],
	"images":[
		{
			"mimeType":"image/png",
			"name":"metal_0081_normal_directx_4k",
			"uri":"metal_0081_normal_directx_4k.png"
		},
		{
			"mimeType":"image/jpeg",
			"name":"metal_0081_color_4k",
			"uri":"metal_0081_color_4k.jpg"
		},
		{
			"mimeType":"image/png",
			"name":"metal_0081_roughness_4k",
			"uri":"metal_0081_roughness_4k.png"
		}
	],
	"accessors":[
		{
			"bufferView":0,
			"componentType":5126,
			"count":144,
			"max":[
				0.42546510696411133,
				7.500000476837158,
				0.42546510696411133
			],
			"min":[
				-0.42546510696411133,
				1.0714285373687744,
				-0.42546510696411133
			],
			"type":"VEC3"
		},
		{
			"bufferView":1,
			"componentType":5126,
			"count":144,
			"type":"VEC3"
		},
		{
			"bufferView":2,
			"componentType":5126,
			"count":144,
			"type":"VEC2"
		},
		{
			"bufferView":3,
			"componentType":5123,
			"count":582,
			"type":"SCALAR"
		},
		{
			"bufferView":4,
			"componentType":5126,
			"count":144,
			"max":[
				0.5785766243934631,
				-1.0714285373687744,
				0.5785766243934631
			],
			"min":[
				-0.5785766243934631,
				-7.500000476837158,
				-0.5785766243934631
			],
			"type":"VEC3"
		},
		{
			"bufferView":5,
			"componentType":5126,
			"count":144,
			"type":"VEC3"
		},
		{
			"bufferView":6,
			"componentType":5126,
			"count":144,
			"type":"VEC2"
		},
		{
			"bufferView":7,
			"componentType":5123,
			"count":414,
			"type":"SCALAR"
		},
		{
			"bufferView":8,
			"componentType":5126,
			"count":116,
			"max":[
				0.5402987003326416,
				1.0714287757873535,
				0.5402987003326416
			],
			"min":[
				-0.5402987003326416,
				-5.357143402099609,
				-0.5402987599372864
			],
			"type":"VEC3"
		},
		{
			"bufferView":9,
			"componentType":5126,
			"count":116,
			"type":"VEC3"
		},
		{
			"bufferView":10,
			"componentType":5126,
			"count":116,
			"type":"VEC2"
		},
		{
			"bufferView":11,
			"componentType":5123,
			"count":336,
			"type":"SCALAR"
		},
		{
			"bufferView":12,
			"componentType":5126,
			"count":4517,
			"max":[
				1.7903664112091064,
				0.057833150029182434,
				1.0775805711746216
			],
			"min":[
				-1.777344822883606,
				-0.05786595493555069,
				-1.0802963972091675
			],
			"type":"VEC3"
		},
		{
			"bufferView":13,
			"componentType":5126,
			"count":4517,
			"type":"VEC3"
		},
		{
			"bufferView":14,
			"componentType":5126,
			"count":4517,
			"type":"VEC2"
		},
		{
			"bufferView":15,
			"componentType":5123,
			"count":12282,
			"type":"SCALAR"
		},
		{
			"bufferView":16,
			"componentType":5126,
			"count":125,
			"max":[
				0.07332590222358704,
				0.7156909108161926,
				0.08487621694803238
			],
			"min":[
				-0.09967419505119324,
				-1.282800316810608,
				-0.05896806716918945
			],
			"type":"VEC3"
		},
		{
			"bufferView":17,
			"componentType":5126,
			"count":125,
			"type":"VEC3"
		},
		{
			"bufferView":18,
			"componentType":5126,
			"count":125,
			"type":"VEC2"
		},
		{
			"bufferView":19,
			"componentType":5123,
			"count":438,
			"type":"SCALAR"
		},
		{
			"bufferView":20,
			"componentType":5126,
			"count":284,
			"max":[
				0.75,
				0.03458818420767784,
				1.75
			],
			"min":[
				-0.75,
				0,
				-1.75
			],
			"type":"VEC3"
		},
		{
			"bufferView":21,
			"componentType":5126,
			"count":284,
			"type":"VEC3"
		},
		{
			"bufferView":22,
			"componentType":5126,
			"count":284,
			"type":"VEC2"
		},
		{
			"bufferView":23,
			"componentType":5123,
			"count":684,
			"type":"SCALAR"
		},
		{
			"bufferView":24,
			"componentType":5126,
			"count":284,
			"max":[
				0.75,
				0.026445554569363594,
				1.0499999523162842
			],
			"min":[
				-0.75,
				0,
				-1.0499999523162842
			],
			"type":"VEC3"
		},
		{
			"bufferView":25,
			"componentType":5126,
			"count":284,
			"type":"VEC3"
		},
		{
			"bufferView":26,
			"componentType":5126,
			"count":284,
			"type":"VEC2"
		},
		{
			"bufferView":27,
			"componentType":5123,
			"count":684,
			"type":"SCALAR"
		},
		{
			"bufferView":28,
			"componentType":5126,
			"count":172,
			"max":[
				1,
				-0.7234495878219604,
				1
			],
			"min":[
				0.31936487555503845,
				-1,
				-0.30214592814445496
			],
			"type":"VEC3"
		},
		{
			"bufferView":29,
			"componentType":5126,
			"count":172,
			"type":"VEC3"
		},
		{
			"bufferView":30,
			"componentType":5126,
			"count":172,
			"type":"VEC2"
		},
		{
			"bufferView":31,
			"componentType":5123,
			"count":282,
			"type":"SCALAR"
		},
		{
			"bufferView":32,
			"componentType":5126,
			"count":4,
			"max":[
				0.9924349188804626,
				-0.7296762466430664,
				0.21364575624465942
			],
			"min":[
				0.3269299864768982,
				-0.7922946810722351,
				-0.294795423746109
			],
			"type":"VEC3"
		},
		{
			"bufferView":33,
			"componentType":5126,
			"count":4,
			"type":"VEC3"
		},
		{
			"bufferView":34,
			"componentType":5126,
			"count":4,
			"type":"VEC2"
		},
		{
			"bufferView":35,
			"componentType":5123,
			"count":6,
			"type":"SCALAR"
		}
	],
	"bufferViews":[
		{
			"buffer":0,
			"byteLength":1728,
			"byteOffset":0,
			"target":34962
		},
		{
			"buffer":0,
			"byteLength":1728,
			"byteOffset":1728,
			"target":34962
		},
		{
			"buffer":0,
			"byteLength":1152,
			"byteOffset":3456,
			"target":34962
		},
		{
			"buffer":0,
			"byteLength":1164,
			"byteOffset":4608,
			"target":34963
		},
		{
			"buffer":0,
			"byteLength":1728,
			"byteOffset":5772,
			"target":34962
		},
		{
			"buffer":0,
			"byteLength":1728,
			"byteOffset":7500,
			"target":34962
		},
		{
			"buffer":0,
			"byteLength":1152,
			"byteOffset":9228,
			"target":34962
		},
		{
			"buffer":0,
			"byteLength":828,
			"byteOffset":10380,
			"target":34963
		},
		{
			"buffer":0,
			"byteLength":1392,
			"byteOffset":11208,
			"target":34962
		},
		{
			"buffer":0,
			"byteLength":1392,
			"byteOffset":12600,
			"target":34962
		},
		{
			"buffer":0,
			"byteLength":928,
			"byteOffset":13992,
			"target":34962
		},
		{
			"buffer":0,
			"byteLength":672,
			"byteOffset":14920,
			"target":34963
		},
		{
			"buffer":0,
			"byteLength":54204,
			"byteOffset":15592,
			"target":34962
		},
		{
			"buffer":0,
			"byteLength":54204,
			"byteOffset":69796,
			"target":34962
		},
		{
			"buffer":0,
			"byteLength":36136,
			"byteOffset":124000,
			"target":34962
		},
		{
			"buffer":0,
			"byteLength":24564,
			"byteOffset":160136,
			"target":34963
		},
		{
			"buffer":0,
			"byteLength":1500,
			"byteOffset":184700,
			"target":34962
		},
		{
			"buffer":0,
			"byteLength":1500,
			"byteOffset":186200,
			"target":34962
		},
		{
			"buffer":0,
			"byteLength":1000,
			"byteOffset":187700,
			"target":34962
		},
		{
			"buffer":0,
			"byteLength":876,
			"byteOffset":188700,
			"target":34963
		},
		{
			"buffer":0,
			"byteLength":3408,
			"byteOffset":189576,
			"target":34962
		},
		{
			"buffer":0,
			"byteLength":3408,
			"byteOffset":192984,
			"target":34962
		},
		{
			"buffer":0,
			"byteLength":2272,
			"byteOffset":196392,
			"target":34962
		},
		{
			"buffer":0,
			"byteLength":1368,
			"byteOffset":198664,
			"target":34963
		},
		{
			"buffer":0,
			"byteLength":3408,
			"byteOffset":200032,
			"target":34962
		},
		{
			"buffer":0,
			"byteLength":3408,
			"byteOffset":203440,
			"target":34962
		},
		{
			"buffer":0,
			"byteLength":2272,
			"byteOffset":206848,
			"target":34962
		},
		{
			"buffer":0,
			"byteLength":1368,
			"byteOffset":209120,
			"target":34963
		},
		{
			"buffer":0,
			"byteLength":2064,
			"byteOffset":210488,
			"target":34962
		},
		{
			"buffer":0,
			"byteLength":2064,
			"byteOffset":212552,
			"target":34962
		},
		{
			"buffer":0,
			"byteLength":1376,
			"byteOffset":214616,
			"target":34962
		},
		{
			"buffer":0,
			"byteLength":564,
			"byteOffset":215992,
			"target":34963
		},
		{
			"buffer":0,
			"byteLength":48,
			"byteOffset":216556,
			"target":34962
		},
		{
			"buffer":0,
			"byteLength":48,
			"byteOffset":216604,
			"target":34962
		},
		{
			"buffer":0,
			"byteLength":32,
			"byteOffset":216652,
			"target":34962
		},
		{
			"buffer":0,
			"byteLength":12,
			"byteOffset":216684,
			"target":34963
		}
	],
	"samplers":[
		{
			"magFilter":9729,
			"minFilter":9987
		}
	],
	"buffers":[
		{
			"byteLength":216696,
			"uri":"LightPoleApron9Mid.bin"
		}
	]
}
